<svg width="420" height="165" viewBox="0 0 420 165" xmlns="http://www.w3.org/2000/svg">
<g clip-path="url(#clip0_26_2)">
<path d="M79.008 67.784C79.008 73.224 77.6 78.216 74.784 82.76C71.968 87.304 67.872 91.016 62.496 93.896C57.12 96.776 50.72 98.472 43.296 98.984L39.168 122.12C37.568 131.016 33.216 135.464 26.112 135.464C22.208 135.464 18.592 134.312 15.264 132.008C12 129.704 9.376 126.184 7.392 121.448C5.408 116.712 4.416 110.888 4.416 103.976C4.416 90.984 6.496 79.976 10.656 70.952C14.88 61.864 20.512 55.08 27.552 50.6C34.656 46.056 42.464 43.784 50.976 43.784C56.992 43.784 62.08 44.84 66.24 46.952C70.464 49.064 73.632 51.944 75.744 55.592C77.92 59.176 79.008 63.24 79.008 67.784ZM45.024 89.096C58.144 87.432 64.704 80.616 64.704 68.648C64.704 64.424 63.296 61 60.48 58.376C57.728 55.688 53.44 54.344 47.616 54.344C41.024 54.344 35.264 56.424 30.336 60.584C25.472 64.744 21.696 70.536 19.008 77.96C16.384 85.32 15.072 93.736 15.072 103.208C15.072 107.176 15.456 110.696 16.224 113.768C17.056 116.84 18.08 119.24 19.296 120.968C20.576 122.632 21.792 123.464 22.944 123.464C24.544 123.464 25.76 121.256 26.592 116.84L29.76 98.696C27.264 98.312 26.176 98.152 26.496 98.216C24.576 97.896 23.328 97.32 22.752 96.488C22.176 95.592 21.888 94.472 21.888 93.128C21.888 91.72 22.272 90.6 23.04 89.768C23.872 88.936 24.992 88.52 26.4 88.52C27.04 88.52 27.52 88.552 27.84 88.616C29.376 88.872 30.56 89.032 31.392 89.096C32.224 84.104 33.408 77.416 34.944 69.032C35.328 66.856 36.192 65.32 37.536 64.424C38.944 63.464 40.576 62.984 42.432 62.984C44.544 62.984 46.048 63.4 46.944 64.232C47.904 65 48.384 66.248 48.384 67.976C48.384 69 48.32 69.832 48.192 70.472L45.024 89.096ZM119.893 103.592C120.725 103.592 121.365 103.976 121.813 104.744C122.325 105.512 122.581 106.568 122.581 107.912C122.581 110.472 121.973 112.456 120.757 113.864C118.389 116.744 115.029 119.4 110.677 121.832C106.389 124.264 101.781 125.48 96.8528 125.48C90.1328 125.48 84.9168 123.656 81.2048 120.008C77.4928 116.36 75.6367 111.368 75.6367 105.032C75.6367 100.616 76.5648 96.52 78.4208 92.744C80.2768 88.904 82.8368 85.864 86.1008 83.624C89.4288 81.384 93.1728 80.264 97.3328 80.264C101.045 80.264 104.021 81.384 106.261 83.624C108.501 85.8 109.621 88.776 109.621 92.552C109.621 96.968 108.021 100.776 104.821 103.976C101.685 107.112 96.3408 109.608 88.7888 111.464C90.3888 114.408 93.4288 115.88 97.9088 115.88C100.789 115.88 104.053 114.888 107.701 112.904C111.413 110.856 114.613 108.2 117.301 104.936C118.069 104.04 118.933 103.592 119.893 103.592ZM95.7008 89.672C93.3328 89.672 91.3168 91.048 89.6528 93.8C88.0528 96.552 87.2528 99.88 87.2528 103.784V103.976C91.0288 103.08 94.0048 101.736 96.1808 99.944C98.3568 98.152 99.4448 96.072 99.4448 93.704C99.4448 92.488 99.0928 91.528 98.3888 90.824C97.7488 90.056 96.8528 89.672 95.7008 89.672ZM157.58 103.592C158.412 103.592 159.052 103.976 159.5 104.744C160.012 105.512 160.268 106.568 160.268 107.912C160.268 110.472 159.66 112.456 158.444 113.864C155.692 117.256 152.684 120.04 149.42 122.216C146.156 124.392 142.412 125.48 138.188 125.48C125.132 125.48 118.604 116.296 118.604 97.928C118.604 95.112 118.7 92.264 118.892 89.384H115.148C113.228 89.384 111.916 89.032 111.212 88.328C110.572 87.624 110.252 86.504 110.252 84.968C110.252 81.384 111.692 79.592 114.572 79.592H120.044C121.132 72.552 122.796 66.12 125.036 60.296C127.276 54.472 129.964 49.832 133.1 46.376C136.3 42.92 139.724 41.192 143.372 41.192C146.06 41.192 148.172 42.376 149.708 44.744C151.244 47.112 152.012 50.088 152.012 53.672C152.012 63.592 147.852 72.232 139.532 79.592H150.284C151.308 79.592 152.044 79.816 152.492 80.264C152.94 80.712 153.164 81.544 153.164 82.76C153.164 87.176 149.548 89.384 142.316 89.384H130.604C130.476 92.584 130.412 95.08 130.412 96.872C130.412 103.528 131.18 108.2 132.716 110.888C134.316 113.576 136.812 114.92 140.204 114.92C142.956 114.92 145.388 114.088 147.5 112.424C149.612 110.76 152.108 108.264 154.988 104.936C155.756 104.04 156.62 103.592 157.58 103.592ZM140.78 50.408C139.82 50.408 138.732 51.624 137.516 54.056C136.364 56.424 135.244 59.752 134.156 64.04C133.132 68.264 132.268 72.968 131.564 78.152C135.34 74.888 138.156 71.24 140.012 67.208C141.932 63.112 142.892 59.4 142.892 56.072C142.892 52.296 142.188 50.408 140.78 50.408ZM195.268 103.592C196.1 103.592 196.74 103.976 197.188 104.744C197.7 105.512 197.956 106.568 197.956 107.912C197.956 110.472 197.348 112.456 196.132 113.864C193.764 116.744 190.404 119.4 186.052 121.832C181.764 124.264 177.156 125.48 172.228 125.48C165.508 125.48 160.292 123.656 156.58 120.008C152.868 116.36 151.012 111.368 151.012 105.032C151.012 100.616 151.94 96.52 153.796 92.744C155.652 88.904 158.212 85.864 161.476 83.624C164.804 81.384 168.548 80.264 172.708 80.264C176.42 80.264 179.396 81.384 181.636 83.624C183.876 85.8 184.996 88.776 184.996 92.552C184.996 96.968 183.396 100.776 180.196 103.976C177.06 107.112 171.716 109.608 164.164 111.464C165.764 114.408 168.804 115.88 173.284 115.88C176.164 115.88 179.428 114.888 183.076 112.904C186.788 110.856 189.988 108.2 192.676 104.936C193.444 104.04 194.308 103.592 195.268 103.592ZM171.076 89.672C168.708 89.672 166.692 91.048 165.028 93.8C163.428 96.552 162.628 99.88 162.628 103.784V103.976C166.404 103.08 169.38 101.736 171.556 99.944C173.732 98.152 174.82 96.072 174.82 93.704C174.82 92.488 174.468 91.528 173.764 90.824C173.124 90.056 172.228 89.672 171.076 89.672ZM228.923 93.416C230.331 93.416 231.515 93.928 232.475 94.952C233.499 95.912 234.011 97.128 234.011 98.6C234.011 99.432 233.819 100.328 233.435 101.288C232.411 103.656 230.971 105.64 229.115 107.24C227.259 108.84 225.211 109.64 222.971 109.64C221.179 109.64 219.643 109 218.363 107.72C217.147 106.44 216.539 104.712 216.539 102.536C216.539 101.32 216.603 100.008 216.731 98.6C216.859 97.576 216.923 96.872 216.923 96.488C216.923 95.976 216.795 95.592 216.539 95.336C216.347 95.08 216.091 94.952 215.771 94.952C214.875 94.952 213.659 96.04 212.123 98.216C210.587 100.328 209.051 103.144 207.515 106.664C205.979 110.184 204.731 113.896 203.771 117.8C203.067 120.872 202.267 122.92 201.371 123.944C200.475 124.968 199.003 125.48 196.955 125.48C194.523 125.48 192.795 124.2 191.771 121.64C190.811 119.08 190.331 114.984 190.331 109.352C190.331 101.032 191.515 93.128 193.883 85.64C194.459 83.784 195.387 82.44 196.667 81.608C198.011 80.712 199.867 80.264 202.235 80.264C203.515 80.264 204.411 80.424 204.923 80.744C205.435 81.064 205.691 81.672 205.691 82.568C205.691 83.592 205.211 85.896 204.251 89.48C203.611 92.04 203.099 94.28 202.715 96.2C202.331 98.12 202.011 100.488 201.755 103.304C203.867 97.8 206.235 93.32 208.859 89.864C211.483 86.408 214.043 83.944 216.539 82.472C219.035 81 221.307 80.264 223.355 80.264C225.211 80.264 226.619 80.808 227.579 81.896C228.603 82.92 229.115 84.456 229.115 86.504C229.115 87.72 228.763 90.024 228.059 93.416H228.923ZM253.089 127.592C249.761 127.592 247.201 126.824 245.409 125.288C243.681 123.752 242.817 122.024 242.817 120.104C242.817 118.44 243.425 117 244.641 115.784C245.857 114.568 247.649 113.96 250.017 113.96C250.849 113.96 251.809 114.056 252.897 114.248C254.049 114.376 254.913 114.472 255.489 114.536C255.425 112.872 255.041 111.304 254.337 109.832C253.697 108.36 252.865 106.952 251.841 105.608C250.817 104.2 249.857 102.984 248.961 101.96C246.977 105.736 244.993 108.872 243.009 111.368C241.089 113.864 238.977 116.232 236.673 118.472C235.521 119.624 234.305 120.2 233.025 120.2C232.001 120.2 231.169 119.848 230.529 119.144C229.889 118.376 229.569 117.448 229.569 116.36C229.569 115.08 230.017 113.896 230.913 112.808L232.161 111.272C235.681 106.92 238.337 103.336 240.129 100.52C241.217 98.664 242.497 96.2 243.969 93.128C245.441 89.992 246.881 86.76 248.289 83.432C249.505 80.616 252.033 79.208 255.873 79.208C257.665 79.208 258.913 79.368 259.617 79.688C260.321 80.008 260.673 80.52 260.673 81.224C260.673 81.608 260.545 82.216 260.289 83.048C260.033 83.88 259.681 84.712 259.233 85.544C258.081 87.848 257.505 89.8 257.505 91.4C257.505 92.36 257.825 93.416 258.465 94.568C259.169 95.72 260.225 97.16 261.633 98.888C263.681 101.576 265.217 103.88 266.241 105.8C267.329 107.656 267.873 109.704 267.873 111.944C267.873 112.584 267.809 113.48 267.681 114.632C270.817 113.416 274.497 110.184 278.721 104.936C279.489 104.04 280.353 103.592 281.313 103.592C282.145 103.592 282.785 103.976 283.233 104.744C283.745 105.512 284.001 106.568 284.001 107.912C284.001 110.344 283.393 112.328 282.177 113.864C278.977 117.832 275.905 120.552 272.961 122.024C270.081 123.432 266.497 124.2 262.209 124.328C259.649 126.504 256.609 127.592 253.089 127.592ZM325.162 95.528C325.994 95.528 326.634 95.944 327.082 96.776C327.53 97.608 327.754 98.664 327.754 99.944C327.754 103.016 326.826 104.84 324.97 105.416C321.13 106.76 316.906 107.528 312.298 107.72C311.082 113.096 308.682 117.416 305.098 120.68C301.514 123.88 297.45 125.48 292.906 125.48C289.066 125.48 285.77 124.552 283.018 122.696C280.33 120.84 278.282 118.376 276.874 115.304C275.466 112.232 274.762 108.904 274.762 105.32C274.762 100.456 275.69 96.136 277.546 92.36C279.402 88.52 281.962 85.544 285.226 83.432C288.49 81.256 292.106 80.168 296.074 80.168C300.938 80.168 304.842 81.864 307.786 85.256C310.794 88.584 312.554 92.712 313.066 97.64C316.074 97.448 319.658 96.808 323.818 95.72C324.33 95.592 324.778 95.528 325.162 95.528ZM293.674 115.304C295.722 115.304 297.482 114.472 298.954 112.808C300.49 111.144 301.514 108.744 302.026 105.608C300.042 104.264 298.506 102.504 297.418 100.328C296.394 98.152 295.882 95.848 295.882 93.416C295.882 92.392 295.978 91.368 296.17 90.344H295.69C293.13 90.344 290.986 91.592 289.258 94.088C287.594 96.52 286.762 99.976 286.762 104.456C286.762 107.976 287.434 110.664 288.778 112.52C290.186 114.376 291.818 115.304 293.674 115.304ZM326.33 125.48C323.898 125.48 322.17 124.2 321.146 121.64C320.186 119.08 319.706 114.984 319.706 109.352C319.706 101.032 320.89 93.128 323.258 85.64C323.834 83.784 324.762 82.44 326.042 81.608C327.386 80.712 329.242 80.264 331.61 80.264C332.89 80.264 333.786 80.424 334.298 80.744C334.81 81.064 335.066 81.672 335.066 82.568C335.066 83.592 334.586 85.896 333.626 89.48C332.986 92.04 332.474 94.28 332.09 96.2C331.706 98.12 331.386 100.488 331.13 103.304C333.242 97.8 335.61 93.32 338.234 89.864C340.858 86.408 343.418 83.944 345.914 82.472C348.474 81 350.81 80.264 352.922 80.264C357.082 80.264 359.162 82.344 359.162 86.504C359.162 89 358.458 93.512 357.05 100.04C355.834 105.608 355.226 109.288 355.226 111.08C355.226 113.64 356.154 114.92 358.01 114.92C359.29 114.92 360.794 114.152 362.522 112.616C364.314 111.016 366.682 108.456 369.626 104.936C370.394 104.04 371.258 103.592 372.218 103.592C373.05 103.592 373.69 103.976 374.138 104.744C374.65 105.512 374.906 106.568 374.906 107.912C374.906 110.472 374.298 112.456 373.082 113.864C370.33 117.256 367.354 120.04 364.154 122.216C361.018 124.392 357.434 125.48 353.402 125.48C350.138 125.48 347.674 124.552 346.01 122.696C344.346 120.776 343.514 118.024 343.514 114.44C343.514 112.648 343.962 109.448 344.858 104.84C345.69 100.808 346.106 98.024 346.106 96.488C346.106 95.464 345.754 94.952 345.05 94.952C344.218 94.952 343.034 96.04 341.498 98.216C340.026 100.328 338.49 103.144 336.89 106.664C335.354 110.184 334.106 113.896 333.146 117.8C332.442 120.808 331.61 122.856 330.65 123.944C329.754 124.968 328.314 125.48 326.33 125.48ZM384.995 127.592C381.667 127.592 379.107 126.824 377.315 125.288C375.587 123.752 374.723 122.024 374.723 120.104C374.723 118.44 375.331 117 376.547 115.784C377.763 114.568 379.555 113.96 381.923 113.96C382.755 113.96 383.715 114.056 384.803 114.248C385.955 114.376 386.819 114.472 387.395 114.536C387.331 112.872 386.947 111.304 386.243 109.832C385.603 108.36 384.771 106.952 383.747 105.608C382.723 104.2 381.763 102.984 380.867 101.96C378.883 105.736 376.899 108.872 374.915 111.368C372.995 113.864 370.883 116.232 368.579 118.472C367.427 119.624 366.211 120.2 364.931 120.2C363.907 120.2 363.075 119.848 362.435 119.144C361.795 118.376 361.475 117.448 361.475 116.36C361.475 115.08 361.923 113.896 362.819 112.808L364.067 111.272C367.587 106.92 370.243 103.336 372.035 100.52C373.187 98.664 374.339 96.456 375.491 93.896C376.707 91.336 378.275 87.848 380.195 83.432C381.411 80.616 383.939 79.208 387.779 79.208C389.571 79.208 390.819 79.368 391.523 79.688C392.227 80.008 392.579 80.52 392.579 81.224C392.579 81.608 392.451 82.216 392.195 83.048C391.939 83.88 391.587 84.712 391.139 85.544C389.987 87.848 389.411 89.8 389.411 91.4C389.411 92.36 389.731 93.416 390.371 94.568C391.075 95.72 392.131 97.16 393.539 98.888C395.587 101.576 397.123 103.88 398.147 105.8C399.235 107.656 399.779 109.704 399.779 111.944C399.779 114.632 399.139 117.192 397.859 119.624C396.643 121.992 394.915 123.912 392.675 125.384C390.435 126.856 387.875 127.592 384.995 127.592Z" fill="currentColor"/>
</g>
<defs>
<clipPath id="clip0_26_2">
<rect width="420" height="165" fill="white"/>
</clipPath>
</defs>
</svg>
